# xmcd
#
# Track frame offsets:
#	150
#	12640
#	24235
#	39372
#	50730
#	62122
#	75010
#	84815
#	95195
#	106925
#	118185
#	130205
#	143700
#	157045
#	168240
#	181032
#	193477
#	207042
#	220512
#	231742
#	243452
#	254177
#	254960
#	266157
#	277512
#	288112
#
# Disc length: 4030 seconds
#
# Revision: 0
# Processed by: cddbd v1.5.1PL0 Copyright (c) Steve Scherf et al.
# Submitted via: audiograbber 1.83.01
#
DISCID=7a0fbc1a
DTITLE=Mable John - Stay Out Of The Kitchen
DYEAR=1992
DGENRE=Soul
TTITLE0=Stay Out Of The Kitchen
TTITLE1=Left Over Love
TTITLE2=Able Mable
TTITLE3=Shouldn't I Love Him
TTITLE4=Catch That Man
TTITLE5=Ain't Giving It Up
TTITLE6=Running Out
TTITLE7=Love Tornado
TTITLE8=Bigger And Better
TTITLE9=Sweet Devil
TTITLE10=It's Catching
TTITLE11=Drop On In
TTITLE12=That Woman Will Give It A Try
TTITLE13=That's What My Love Can Do
TTITLE14=I Love You More Than Words Can Say
TTITLE15=Have Your Cake
TTITLE16=Be Warm To Me
TTITLE17=I Taught You How
TTITLE18=If You Give Up What You Got (See What You Lost)
TTITLE19=Don't Get Caught
TTITLE20=The Man's Too Busy
TTITLE21=I'm A Big Girl Now - Slate
TTITLE22=I'm A Big Girl Now
TTITLE23=To Love What I Want, And Want What I Love
TTITLE24=Sorry About That
TTITLE25=I Need Your Love So Bad
EXTD=
EXTT0=
EXTT1=
EXTT2=
EXTT3=
EXTT4=
EXTT5=
EXTT6=
EXTT7=
EXTT8=
EXTT9=
EXTT10=
EXTT11=
EXTT12=
EXTT13=
EXTT14=
EXTT15=
EXTT16=
EXTT17=
EXTT18=
EXTT19=
EXTT20=
EXTT21=
EXTT22=
EXTT23=
EXTT24=
EXTT25=
PLAYORDER=
